<svg width="24" height="24" viewBox="0 0 24 24" fill="none" xmlns="http://www.w3.org/2000/svg">
    <path d="M24 12c0 6.628-5.373 12-12 12a11.991 11.991 0 0 1-10.45-6.099 11.933 11.933 0 0 1-1.55-5.9C0 5.372 5.372 0 12 0c3.92 0 7.403 1.881 9.593 4.79A11.948 11.948 0 0 1 24 12z" fill="#FDC300"/>
    <path d="M23.143 10.692c0 6.628-5.372 12-12 12-3.921 0-7.403-1.88-9.594-4.79A11.933 11.933 0 0 1 0 12C0 5.372 5.372 0 12 0c3.92 0 7.403 1.881 9.593 4.79a11.934 11.934 0 0 1 1.55 5.902z" fill="gold"/>
    <path d="M15.91 11.864c1.034 0 1.872-.98 1.872-2.188 0-1.208-.838-2.188-1.871-2.188-1.034 0-1.872.98-1.872 2.188 0 1.208.838 2.188 1.872 2.188zM8.063 11.864c1.034 0 1.872-.98 1.872-2.188 0-1.208-.838-2.188-1.872-2.188-1.033 0-1.87.98-1.87 2.188 0 1.208.837 2.188 1.87 2.188z" fill="#3D4347"/>
    <path d="M5.14 13.84A7.105 7.105 0 0 0 12 19.104a7.105 7.105 0 0 0 6.86-5.264" stroke="#3D4347" stroke-width="1.5" stroke-miterlimit="10" stroke-linecap="round"/>
</svg>
