<svg width="24" height="25" viewBox="0 0 24 25" fill="none" xmlns="http://www.w3.org/2000/svg">
    <path d="m19.72 7.132.01-.02M14.87 3.582l-.01.01M21.5 12.572v-.01M2.5 12.562v.01M4.27 7.112l.01.02M9.14 3.592l-.01-.01M18.718 5.934a9.5 9.5 0 0 1 0 13.435 9.5 9.5 0 0 1-13.436 0A9.5 9.5 0 1 1 18.717 5.934M15.89 11.402l2-.65" stroke="#fff" stroke-width="1.5" stroke-linecap="round" stroke-linejoin="round"/>
    <path d="m21.443 13.496-3.551-2.748 1.258-4.31M12 8.582v-2.11M15.71 3.94 12 6.467 8.289 3.94M14.4 15.962l1.24 1.71M14.125 21.9l1.517-4.225 4.487-.136M8.11 11.402l-2-.65M2.557 13.496l3.551-2.748-1.258-4.31M9.6 15.962l-1.24 1.71M9.875 21.9l-1.517-4.225-4.487-.136" stroke="#fff" stroke-width="1.5" stroke-linecap="round" stroke-linejoin="round"/>
    <path clip-rule="evenodd" d="m12 8.578 3.885 2.823-1.484 4.566H9.599L8.115 11.4 12 8.578z" stroke="#fff" stroke-width="1.5" stroke-linecap="round" stroke-linejoin="round"/>
</svg>
